<svg width="1440" height="848" viewBox="0 0 1440 30" preserveAspectRatio="xMinYMin meet" fill="none" xmlns="http://www.w3.org/2000/svg">
<circle cx="87.0082" cy="68.5911" r="2.78826" fill="white" fill-opacity="0.5"/>
<circle opacity="0.3" cx="116.006" cy="2.78826" r="2.78826" fill="white" fill-opacity="0.5"/>
<circle cx="286.647" cy="156.7" r="2.78826" fill="white" fill-opacity="0.9"/>
<ellipse cx="432.752" cy="113.203" rx="3.90356" ry="2.78826" fill="white" fill-opacity="0.5"/>
<ellipse opacity="0.3" cx="461.75" cy="45.7274" rx="3.90356" ry="3.34591" fill="white" fill-opacity="0.5"/>
<ellipse cx="631.833" cy="200.197" rx="3.34591" ry="3.90356" fill="white" fill-opacity="0.9"/>
<circle cx="778.496" cy="155.585" r="2.78826" fill="white" fill-opacity="0.5"/>
<circle opacity="0.3" cx="807.494" cy="89.7819" r="2.78826" fill="white" fill-opacity="0.5"/>
<ellipse cx="1191.16" cy="438.314" rx="2.78826" ry="3.34591" fill="white" fill-opacity="0.9"/>
<ellipse cx="1337.82" cy="393.144" rx="3.34591" ry="2.78826" fill="white" fill-opacity="0.5"/>
<ellipse opacity="0.3" cx="1366.82" cy="327.341" rx="3.34591" ry="2.78826" fill="white" fill-opacity="0.5"/>
<ellipse cx="479.595" cy="327.341" rx="3.90356" ry="2.78826" fill="white" fill-opacity="0.5"/>
<ellipse opacity="0.3" cx="508.035" cy="261.538" rx="3.34591" ry="2.78826" fill="white" fill-opacity="0.5"/>
<ellipse cx="298.358" cy="844.842" rx="3.34591" ry="2.78826" fill="white" fill-opacity="0.9"/>
<ellipse cx="444.463" cy="800.23" rx="2.23061" ry="3.90356" fill="white" fill-opacity="0.5"/>
<ellipse opacity="0.3" cx="472.903" cy="733.869" rx="2.78826" ry="3.34591" fill="white" fill-opacity="0.5"/>
<circle cx="1312.73" cy="682.008" r="2.78826" fill="white" fill-opacity="0.9"/>
<ellipse cx="1324.99" cy="286.633" rx="2.78826" ry="3.34591" fill="white" fill-opacity="0.9"/>
<ellipse cx="204.673" cy="483.484" rx="3.34591" ry="2.78826" fill="white" fill-opacity="0.5"/>
<ellipse opacity="0.3" cx="233.67" cy="416.565" rx="3.34591" ry="2.78826" fill="white" fill-opacity="0.5"/>
<ellipse cx="566.031" cy="539.249" rx="3.34591" ry="2.78826" fill="white" fill-opacity="0.9"/>
<ellipse cx="712.693" cy="494.637" rx="2.78826" ry="3.90356" fill="white" fill-opacity="0.5"/>
<ellipse opacity="0.3" cx="741.691" cy="428.276" rx="2.78826" ry="3.34591" fill="white" fill-opacity="0.5"/>
<ellipse cx="852.663" cy="682.008" rx="3.34591" ry="2.78826" fill="white" fill-opacity="0.9"/>
<ellipse cx="999.326" cy="637.953" rx="2.78826" ry="3.34591" fill="white" fill-opacity="0.5"/>
<ellipse opacity="0.3" cx="1028.32" cy="572.15" rx="2.78826" ry="3.34591" fill="white" fill-opacity="0.5"/>
<circle cx="906.756" cy="444.448" r="2.78826" fill="white" fill-opacity="0.9"/>
<ellipse cx="1052.86" cy="399.278" rx="2.78826" ry="3.34591" fill="white" fill-opacity="0.5"/>
<ellipse opacity="0.3" cx="1081.86" cy="333.475" rx="2.78826" ry="3.34591" fill="white" fill-opacity="0.5"/>
<circle cx="960.29" cy="206.889" r="2.78826" fill="white" fill-opacity="0.9"/>
<circle cx="1106.95" cy="161.719" r="3.34591" fill="white" fill-opacity="0.5"/>
<circle opacity="0.3" cx="1135.95" cy="95.916" r="3.34591" fill="white" fill-opacity="0.5"/>
</svg>
